<?xml version="1.0" encoding="UTF-8"?><svg id="Calque_2" xmlns="http://www.w3.org/2000/svg" viewBox="0 0 604.96 392.09"><defs><style>.cls-1{fill:#fff;}.cls-2{fill:#be251f;}.cls-3{fill:#c9a83c;}.cls-4{fill:#4dc251;}.cls-5{fill:#35d8ec;}</style></defs><g id="Calque_1-2"><g><path class="cls-1" d="M31.26,345.65v6.71H10.7v12.09H29.25v6.64H10.7v13.75H31.26v6.65H2.93v-45.84H31.26Z"/><path class="cls-1" d="M72.99,391.49v-45.84h15.6c10.38,0,17.34,5.51,17.34,20.2v5.45c0,14.68-6.97,20.2-17.34,20.2h-15.6Zm25.18-20.2v-5.45c0-9.43-2.95-13.49-9.58-13.49h-7.84v32.49h7.84c6.63,0,9.58-4.12,9.58-13.55Z"/><path class="cls-1" d="M183.17,345.65v27.24c0,13.55-7.03,19.2-17.28,19.2s-17.28-5.65-17.28-19.13v-27.31h7.77v27.31c0,8.77,3.15,12.42,9.51,12.42s9.51-3.65,9.51-12.42v-27.31h7.77Z"/><path class="cls-1" d="M252.43,359.87c-1.2-5.58-4.22-8.11-9.31-8.11-6.16,0-9.51,3.99-9.51,13.89v5.85c0,9.77,3.35,13.89,9.51,13.89,5.29,0,8.1-2.53,9.31-8.11h7.43c-1.54,10.3-7.57,14.82-16.74,14.82-10.31,0-17.28-6.18-17.28-20.6v-5.85c0-14.42,6.97-20.6,17.28-20.6,9.17,0,15.27,4.85,16.81,14.81h-7.5Z"/><path class="cls-1" d="M296.18,391.49l16.07-45.84h7.37l16.07,45.84h-8.24l-3.15-9.5h-16.67l-3.15,9.5h-8.3Zm13.59-16.15h12.32l-6.16-18.53-6.16,18.53Z"/><path class="cls-1" d="M402.81,345.65v6.71h-13.26v39.13h-7.77v-39.13h-13.33v-6.71h34.35Z"/><path class="cls-1" d="M451.17,391.49h-7.77v-45.84h7.77v45.84Z"/><path class="cls-1" d="M511.72,392.09c-10.31,0-17.28-6.18-17.28-20.6v-5.85c0-14.42,6.97-20.6,17.28-20.6s17.34,6.18,17.34,20.6v5.85c0,14.42-6.97,20.6-17.34,20.6Zm-9.51-20.6c0,9.9,3.35,13.89,9.51,13.89s9.58-3.98,9.58-13.89v-5.85c0-9.9-3.41-13.89-9.58-13.89s-9.51,3.99-9.51,13.89v5.85Z"/><path class="cls-1" d="M604.96,345.65v45.84h-6.9l-18.82-31.16v31.16h-7.5v-45.84h6.7l19.02,31.56v-31.56h7.5Z"/></g><path class="cls-1" d="M.62,3.41H51.46V244.29H.62V3.41Z"/><path class="cls-1" d="M95.42,3.41h113.96V53.22h-63.12v47.77h48.11v44.7h-48.11v49.47h63.12v49.13H95.42V3.41Z"/><path class="cls-1" d="M247.17,3.41h109.52V53.22h-58.68v47.77h44.35v44.7h-44.35v98.6h-50.84V3.41Z"/><path class="cls-1" d="M466.46,64.82c0-12.28-7.51-16.38-16.04-16.38-9.21,0-16.72,3.75-16.72,19.45h-50.15C383.55,26.95,411.53,0,450.08,0s66.87,26.27,66.87,64.14c0,63.46-81.88,95.53-81.88,131.01h79.84v49.13h-131.36v-39.92c0-75.06,82.91-98.6,82.91-139.54Z"/><path class="cls-1" d="M554.12,3.41h50.84V244.29h-50.84V3.41Z"/><rect class="cls-2" x="0" y="273.51" width="50.83" height="50.83"/><rect class="cls-5" x="76.75" y="273.51" width="50.83" height="50.83"/><rect class="cls-3" x="153.51" y="273.51" width="50.83" height="50.83"/><rect class="cls-4" x="230.26" y="273.51" width="50.83" height="50.83"/></g></svg>